<?xml version="1.0" encoding="UTF-8" standalone="no"?>
<svg width="106px" height="22px" viewBox="0 0 106 22" version="1.1" xmlns="http://www.w3.org/2000/svg" xmlns:xlink="http://www.w3.org/1999/xlink">
    <!-- Generator: Sketch 50.2 (55047) - http://www.bohemiancoding.com/sketch -->
    <title>Group 2</title>
    <desc>Created with Sketch.</desc>
    <defs></defs>
    <g id="Page-1" stroke="none" stroke-width="1" fill="none" fill-rule="evenodd">
        <g id="360" transform="translate(-32.000000, -60.000000)">
            <g id="Group-2" transform="translate(32.000000, 60.000000)">
                <path d="M37.9269457,8.67899003 C37.8776134,8.18697674 37.7289839,7.81647841 37.4816899,7.56685714 C37.234185,7.3174485 36.891494,7.19253156 36.4529845,7.19253156 C35.9864356,7.19253156 35.6273005,7.34392027 35.3766333,7.6469103 C35.1252282,7.95011296 35,8.38312292 35,8.94647176 L35,17.5133289 C35,18.0838007 35.127231,18.5133023 35.3819039,18.8022591 C35.6362605,19.090897 36.0143695,19.2353754 36.5167581,19.2353754 C37.0258929,19.2353754 37.4073751,19.090897 37.6619426,18.8022591 C37.9164046,18.5133023 38.0434248,18.0838007 38.0434248,17.5133289 L38.0434248,11.919495 C38.0434248,11.2352691 38.2187232,10.6965847 38.5686875,10.3047176 C38.918441,9.9128505 39.3939498,9.71649169 39.9947922,9.71649169 C40.5321772,9.71649169 40.9454935,9.86990033 41.2355844,10.1767176 C41.5254645,10.4832159 41.6704045,10.9181395 41.6704045,11.4810631 L41.6704045,17.5133289 C41.6704045,18.090711 41.7939462,18.5223389 42.0414511,18.8075748 C42.2888505,19.0928106 42.6635865,19.2353754 43.1655534,19.2353754 C43.6676257,19.2353754 44.0457348,19.090897 44.300513,18.8022591 C44.554975,18.5133023 44.6821006,18.0838007 44.6821006,17.5133289 L44.6821006,11.8982326 C44.6821006,11.213794 44.8589802,10.6756412 45.2122123,10.2832425 C45.5657606,9.8912691 46.0428505,9.69544186 46.6440091,9.69544186 C47.1811833,9.69544186 47.6000864,9.85023256 47.900613,10.1604518 C48.2009288,10.4705648 48.3512448,10.9034684 48.3512448,11.4596944 L48.3512448,17.5133289 C48.3512448,18.0763588 48.4821652,18.5045847 48.7440059,18.7966246 C49.0053197,19.089196 49.3836395,19.2353754 49.8786493,19.2353754 C50.3877842,19.2353754 50.7676852,19.0928106 51.0184579,18.8075748 C51.2692305,18.5223389 51.3950912,18.090711 51.3950912,17.5133289 L51.3950912,10.8288372 C51.3950912,9.65217276 51.0574599,8.72385382 50.3819866,8.04271096 C49.7072511,7.36178073 48.7861703,7.0215814 47.6196928,7.0215814 C46.9336784,7.0215814 46.3152324,7.16201993 45.7637223,7.44374751 C45.2122123,7.7255814 44.7383901,8.1442392 44.3426774,8.70046512 C43.9609844,8.11585382 43.5120391,7.68635216 42.9962634,7.41132226 C42.4797498,7.13714286 41.8577198,7 41.1296464,7 C40.4646088,7 39.867772,7.14054485 39.3375549,7.42227243 C38.8073379,7.70431894 38.3367834,8.12276412 37.9269457,8.67899003 Z" id="Fill-1" fill="#7B7C7E"></path>
                <path d="M53.4719248,7.55633223 C53.2139842,7.84858472 53.0852775,8.28712292 53.0852775,8.87184053 L53.0852775,17.4386977 C53.0852775,18.0091694 53.2139842,18.4386711 53.4719248,18.7276279 C53.730287,19.0162658 54.1169344,19.1607442 54.6335534,19.1607442 C55.1424774,19.1607442 55.5257516,19.0162658 55.7837976,18.7276279 C56.041949,18.4386711 56.1708666,18.0091694 56.1708666,17.4386977 L56.1708666,8.87184053 C56.1708666,8.28712292 56.041949,7.84858472 55.7837976,7.55633223 C55.5257516,7.26418605 55.1424774,7.11790033 54.6335534,7.11790033 C54.1169344,7.11790033 53.730287,7.26418605 53.4719248,7.55633223 M53.4826767,3.48669767 C53.1608571,3.8112691 53,4.19792691 53,4.64677741 C53,5.08212625 53.1626491,5.46357475 53.4881581,5.79144186 C53.8130346,6.11952159 54.1949385,6.28356146 54.6335534,6.28356146 C55.0788092,6.28356146 55.4607131,6.12334884 55.7790541,5.80239203 C56.0966573,5.48143522 56.2560387,5.09637209 56.2560387,4.64677741 C56.2560387,4.18357475 56.0985547,3.79330233 55.7837976,3.47596013 C55.469146,3.15904319 55.0857664,3 54.6335534,3 C54.1877705,3 53.8041801,3.1625515 53.4826767,3.48669767" id="Fill-2" fill="#7B7C7E"></path>
                <path d="M62.4808084,7.51848505 C61.8763821,7.86442525 61.3830588,8.36175415 61.001155,9.0107907 L60.9588852,8.62551495 C60.9236779,8.13350166 60.7909656,7.77161462 60.5613805,7.53985382 C60.331163,7.30830565 59.990264,7.19253156 59.5377349,7.19253156 C59.0217483,7.19253156 58.636155,7.33881728 58.3821147,7.63096346 C58.1274418,7.92321595 58,8.36175415 58,8.94647176 L58,17.5133289 C58,18.0838007 58.1287068,18.5133023 58.3872798,18.8022591 C58.6454312,19.090897 59.0290216,19.2353754 59.5377349,19.2353754 C60.0534052,19.2353754 60.440685,19.090897 60.6991526,18.8022591 C60.9570932,18.5133023 61.086327,18.0838007 61.086327,17.5133289 L61.086327,12.1440266 C61.086327,11.3887841 61.2979922,10.791309 61.7227983,10.3526645 C62.1468665,9.91433887 62.7227265,9.69544186 63.4506945,9.69544186 C64.0801033,9.69544186 64.5344244,9.87330233 64.813658,10.2297674 C65.0927862,10.5863389 65.2325611,11.1819003 65.2325611,12.0160266 L65.2325611,17.5133289 C65.2325611,18.0838007 65.3614787,18.5133023 65.6198409,18.8022591 C65.8776761,19.090897 66.2611611,19.2353754 66.7700851,19.2353754 C67.2860717,19.2353754 67.6733515,19.090897 67.9315029,18.8022591 C68.1896543,18.5133023 68.3189935,18.0838007 68.3189935,17.5133289 L68.3189935,11.1172625 C68.3189935,9.75582724 67.9967523,8.72906312 67.3535347,8.03739535 C66.7100009,7.3459402 65.7627782,7 64.5116557,7 C63.7617622,7 63.0850239,7.17275748 62.4808084,7.51848505" id="Fill-6" fill="#7B7C7E"></path>
                <path d="M77.6196301,7.43843189 C77.3614787,7.73068439 77.2327719,8.16922259 77.2327719,8.7539402 L77.2327719,14.1229236 C77.2327719,14.8715748 77.0206851,15.4635216 76.5961952,15.8981262 C76.1722324,16.3333688 75.5958454,16.5507774 74.867772,16.5507774 C74.2316169,16.5507774 73.7753984,16.374299 73.4999596,16.0211296 C73.2240991,15.6682791 73.086327,15.0783522 73.086327,14.2511362 L73.086327,8.7539402 C73.086327,8.16922259 72.9554066,7.73068439 72.6936713,7.43843189 C72.4322521,7.14628571 72.0472914,7 71.5380511,7 C71.0287054,7 70.6450096,7.14628571 70.3871744,7.43843189 C70.1292338,7.73068439 70,8.16922259 70,8.7539402 L70,15.1495814 C70,16.4831628 70.3168653,17.4847309 70.9494364,18.1549236 C71.581902,18.8252226 72.531233,19.1604252 73.796586,19.1604252 C74.5744133,19.1604252 75.2616927,18.9963854 75.8591619,18.668412 C76.4570528,18.3405449 76.942681,17.8591628 77.3172061,17.2243721 L77.3597921,17.6202791 C77.3952102,18.1122924 77.5276063,18.4723721 77.7575076,18.7006246 C77.9870926,18.9285581 78.3249347,19.0428439 78.770296,19.0428439 C79.2936613,19.0428439 79.6823114,18.9018738 79.9365626,18.6205714 C80.1914463,18.3387375 80.3184665,17.905515 80.3184665,17.3207973 L80.3184665,8.7539402 C80.3184665,8.16922259 80.1879677,7.73068439 79.9263378,7.43843189 C79.6643916,7.14628571 79.27922,7 78.770296,7 C78.2613719,7 77.8775707,7.14628571 77.6196301,7.43843189" id="Fill-7" fill="#7B7C7E"></path>
                <path d="M85.6589193,15.7969169 C85.2201989,15.2017807 85.001155,14.3370365 85.001155,13.2033223 C85.001155,12.0554684 85.2238883,11.1750963 85.6690387,10.5613555 C86.1144,9.94878405 86.7509767,9.64186047 87.5779255,9.64186047 C88.3553312,9.64186047 88.9668201,9.94665781 89.412603,10.5563588 C89.8578588,11.1660598 90.0806976,12.005608 90.0806976,13.074897 C90.0806976,14.2374219 89.8636564,15.1304452 89.4284146,15.7541794 C88.9938053,16.3781262 88.3697725,16.6899402 87.5567379,16.6899402 C86.7295782,16.6899402 86.0964801,16.3924784 85.6589193,15.7969169 M82.3766333,3.43311628 C82.125439,3.72196678 82,4.15518937 82,4.73257143 L82,17.4386977 C82,18.0160797 82.125439,18.4477076 82.3766333,18.7329435 C82.6271951,19.0181794 83.0074124,19.1607442 83.5163364,19.1607442 C83.9614868,19.1607442 84.3099754,19.0358272 84.5607481,18.7863123 C84.8117315,18.5367973 84.9373814,18.1872425 84.9373814,17.7381794 L84.9373814,17.3958538 C85.3826372,18.0803987 85.879439,18.5796412 86.4272597,18.8930498 C86.9756074,19.2068837 87.6204061,19.363907 88.3626046,19.363907 C89.7837549,19.363907 90.9361074,18.7968372 91.8200835,17.6634419 C92.7035327,16.529515 93.1454153,15.0429502 93.1454153,13.2033223 C93.1454153,11.3495548 92.7035327,9.84321595 91.8200835,8.68462458 C90.9361074,7.52592691 89.7977746,6.94695017 88.4051906,6.94695017 C87.6625705,6.94695017 87.0054387,7.10014618 86.4326356,7.40643189 C85.8599379,7.71314286 85.3826372,8.17304983 85.001155,8.78647176 L85.001155,4.73257143 C85.001155,4.15518937 84.8753997,3.72196678 84.6239946,3.43311628 C84.3734328,3.14447841 83.9971157,3 83.494938,3 C83.0002444,3 82.6271951,3.14447841 82.3766333,3.43311628" id="Fill-8" fill="#7B7C7E"></path>
                <path d="M98.860465,10.2140332 C99.242158,9.80377409 99.7722697,9.59880399 100.450905,9.59880399 C101.164854,9.59880399 101.714783,9.80377409 102.099954,10.2140332 C102.48502,10.6237608 102.695631,11.2210233 102.731049,12.005289 L98.1921596,12.005289 C98.2558278,11.2210233 98.4783503,10.6237608 98.860465,10.2140332 M96.4423379,8.64688372 C95.4808847,9.74498339 95,11.245794 95,13.1495282 C95,15.0819668 95.4879473,16.6130764 96.4637364,17.7436013 C97.4389984,18.8735947 98.7611679,19.4385382 100.429718,19.4385382 C101.249709,19.4385382 102.00793,19.311495 102.704275,19.058897 C103.400936,18.8057674 103.996192,18.4438804 104.491307,17.9730233 C104.745769,17.7238272 104.934771,17.4797342 105.058734,17.2407442 C105.182592,17.0017542 105.244363,16.7610631 105.244363,16.5185648 C105.244363,16.1835748 105.129465,15.9038671 104.899774,15.6790166 C104.669557,15.4543787 104.381785,15.342113 104.035299,15.342113 C103.646544,15.342113 103.190536,15.5813156 102.667592,16.0586578 C102.575568,16.1442392 102.500832,16.2119601 102.444648,16.2620332 C102.218541,16.4542458 101.956911,16.6008505 101.659758,16.7006777 C101.362921,16.8003987 101.037833,16.8501528 100.684391,16.8501528 C99.913942,16.8501528 99.3145754,16.6112691 98.8870286,16.1335017 C98.4589547,15.6560532 98.2273669,14.9607708 98.1921596,14.048186 L104.247491,14.048186 C104.982733,14.048186 105.442008,13.9534618 105.626477,13.7647575 C105.809998,13.5757342 105.902021,13.2244784 105.902021,12.71099 C105.902021,10.9716146 105.401319,9.58455814 104.401286,8.55077741 C103.400936,7.51710299 102.063166,7 100.387237,7 C98.7185819,7 97.4035803,7.54899668 96.4423379,8.64688372" id="Fill-12" fill="#7B7C7E"></path>
                <path d="M23.0274838,5.57196616 C21.4378699,2.96735376 18.4526167,1.50989639 15.3871739,2.15011345 C12.8421202,2.68058631 10.8740951,4.53029174 9.98483305,6.87687314 C9.81449316,6.89085763 9.64423767,6.90995841 9.47389777,6.9483305 C7.90344495,7.26835376 6.73005798,8.47289639 6.30910403,9.97802042 C5.76507993,9.87765608 5.20231675,9.882346 4.63930034,9.99251655 C2.1082588,10.5085786 0.54244854,13.0941755 1.11964587,15.741253 C1.69211623,18.3603615 4.15664249,20.0804545 6.64032987,19.607284 C6.70169613,19.5932995 6.76804259,19.579315 6.82949326,19.5643925 C8.87787695,20.9648034 12.7853965,21.4666251 17.0761387,20.659191 C22.0572723,19.7268344 26.0312228,17.3232065 26.9726504,14.8666251 C28.6474343,13.7913538 29.6411118,11.7271057 29.3093795,9.58133825 C28.8741602,6.74760182 26.3055561,4.86915996 23.5899938,5.42359407 C23.3961034,5.46179562 23.2117514,5.51466383 23.0274838,5.57196616 Z" id="Fill-16" stroke="#98D563" fill="#98D563" fill-rule="nonzero"></path>
                <path d="M31.1456675,8.8428542 C30.6157399,5.31611777 27.4839505,2.89773792 24.05892,3.41388521 C22.0677664,0.847730169 18.8315616,-0.519169056 15.4965124,0.183381332 C12.7339335,0.766210789 10.5576683,2.63987746 9.38461894,5.06269141 C7.76672755,5.4542573 6.48934714,6.55835032 5.77025617,7.97291622 C5.42037566,7.98272242 5.07496889,8.02100924 4.72483514,8.0924666 C1.40379801,8.77097048 -0.597231525,12.1498464 0.159759655,15.5571178 C0.878850629,18.7969162 3.85912355,20.9954666 6.97681637,20.588893 C9.52178561,22.0277612 13.5807372,22.3623658 17.7246899,21.5927922 C22.5213027,20.6991488 27.0017147,18.3815596 28.4966204,15.3704589 C30.4269141,13.9274123 31.5337014,11.4278542 31.1456675,8.8428542 L31.1456675,8.8428542 Z M27.3610492,14.4146526 C26.4195372,16.8713193 22.4455867,19.274862 17.4645375,20.2073038 C13.1737953,21.0147379 9.26627576,20.5129162 7.21789207,19.1124201 C7.15635699,19.1274278 7.09009494,19.1414123 7.02872868,19.1553116 C4.5450413,19.6285674 2.08051504,17.9083891 1.50804468,15.2892806 C0.930762937,12.642203 2.4966576,10.0566914 5.02769914,9.54054412 C5.59071555,9.43045885 6.15347873,9.42568366 6.69750284,9.52613327 C7.11845678,8.02100924 8.29184376,6.8164666 9.86229658,6.49635808 C10.0326365,6.45807125 10.202892,6.43888521 10.3732319,6.42490071 C11.2624939,4.07831932 13.2304346,2.22869916 15.7755727,1.69822629 C18.8410156,1.05792397 21.8261843,2.5154666 23.4157982,5.12007901 C23.6001502,5.06269141 23.7845022,5.00990846 23.9783082,4.97162164 C26.6939549,4.41718753 29.262559,6.29562939 29.6977783,9.12936583 C30.0295106,11.2752185 29.0358331,13.3394666 27.3610492,14.4146526 L27.3610492,14.4146526 Z" id="Fill-18" fill="#81C34A"></path>
                <path d="M20.6037949,5 C19.7179936,5 19,5.72531783 19,6.62006977 C19,7.51490698 19.7179936,8.24022481 20.6037949,8.24022481 C21.4895117,8.24022481 22.2075897,7.51490698 22.2075897,6.62006977 C22.2075897,5.72531783 21.4895117,5 20.6037949,5" id="Fill-19" fill="#FFFFFF"></path>
                <path d="M22.8441026,8 C22.3779047,8 22,8.38184496 22,8.85279845 C22,9.32366667 22.3779047,9.70551163 22.8441026,9.70551163 C23.310216,9.70551163 23.6882051,9.32366667 23.6882051,8.85279845 C23.6882051,8.38184496 23.310216,8 22.8441026,8" id="Fill-20" fill="#FFFFFF"></path>
            </g>
        </g>
    </g>
</svg>