<?xml version="1.0" encoding="UTF-8" standalone="no"?>
<svg
   width="31.22275"
   height="21.995064"
   viewBox="0 0 31.22275 21.995064"
   version="1.1"
   id="svg21"
   sodipodi:docname="icon_minube.svg"
   inkscape:version="1.1.2 (b8e25be833, 2022-02-05)"
   xmlns:inkscape="http://www.inkscape.org/namespaces/inkscape"
   xmlns:sodipodi="http://sodipodi.sourceforge.net/DTD/sodipodi-0.dtd"
   xmlns="http://www.w3.org/2000/svg"
   xmlns:svg="http://www.w3.org/2000/svg"
   xmlns:rdf="http://www.w3.org/1999/02/22-rdf-syntax-ns#"
   xmlns:cc="http://creativecommons.org/ns#"
   xmlns:dc="http://purl.org/dc/elements/1.1/">
  <sodipodi:namedview
     id="namedview23"
     pagecolor="#ffffff"
     bordercolor="#999999"
     borderopacity="1"
     inkscape:pageshadow="0"
     inkscape:pageopacity="0"
     inkscape:pagecheckerboard="0"
     showgrid="false"
     inkscape:zoom="6.5613208"
     inkscape:cx="38.940331"
     inkscape:cy="18.670022"
     inkscape:window-width="1920"
     inkscape:window-height="1001"
     inkscape:window-x="-9"
     inkscape:window-y="-9"
     inkscape:window-maximized="1"
     inkscape:current-layer="svg21" />
  <!-- Generator: Sketch 50.2 (55047) - http://www.bohemiancoding.com/sketch -->
  <title
     id="title2">Group 2</title>
  <desc
     id="desc4">Created with Sketch.</desc>
  <defs
     id="defs6" />
  <path
     d="M 23.027484,5.5719662 C 21.43787,2.9673538 18.452617,1.5098964 15.387174,2.1501135 12.84212,2.6805863 10.874095,4.5302917 9.9848331,6.8768731 9.8144932,6.8908576 9.6442377,6.9099584 9.4738978,6.9483305 7.9034449,7.2683538 6.730058,8.4728964 6.309104,9.9780204 5.7650799,9.8776561 5.2023167,9.882346 4.6393003,9.9925166 2.1082588,10.508579 0.54244854,13.094176 1.1196459,15.741253 c 0.5724703,2.619108 3.0369966,4.339201 5.520684,3.866031 0.061366,-0.01399 0.1277127,-0.02797 0.1891634,-0.04289 2.0483836,1.400411 5.9559027,1.902233 10.2466457,1.094799 4.981133,-0.932357 8.955084,-3.335984 9.896511,-5.792566 1.674784,-1.075271 2.668462,-3.139519 2.336729,-5.2852867 C 28.87416,6.7476018 26.305556,4.86916 23.589994,5.4235941 c -0.193891,0.038202 -0.378243,0.09107 -0.56251,0.1483721 z"
     id="Fill-16"
     stroke="#98d563"
     fill="#98d563"
     fill-rule="nonzero"
     style="stroke-width:1" />
  <path
     d="M 31.145667,8.8428542 C 30.61574,5.3161178 27.48395,2.8977379 24.05892,3.4138852 22.067766,0.84773017 18.831562,-0.51916906 15.496512,0.18338133 12.733933,0.76621079 10.557668,2.6398775 9.3846189,5.0626914 7.7667275,5.4542573 6.4893471,6.5583503 5.7702562,7.9729162 5.4203757,7.9827224 5.0749689,8.0210092 4.7248351,8.0924666 1.403798,8.7709705 -0.59723152,12.149846 0.15975965,15.557118 c 0.71909098,3.239798 3.69936395,5.438349 6.81705675,5.031775 2.5449692,1.438868 6.6039206,1.773473 10.7478736,1.003899 4.796613,-0.893643 9.277025,-3.211232 10.77193,-6.222333 1.930294,-1.443047 3.037081,-3.942605 2.649047,-6.5276048 z m -3.784618,5.5717988 c -0.941512,2.456666 -4.915462,4.860209 -9.896512,5.792651 C 13.173795,21.014738 9.2662758,20.512916 7.2178921,19.11242 7.1563571,19.12743 7.0900949,19.14141 7.0287287,19.15531 4.5450413,19.628567 2.080515,17.908389 1.5080447,15.289281 0.93076294,12.642203 2.4966576,10.056691 5.0276991,9.5405441 5.5907155,9.4304589 6.1534787,9.4256837 6.6975028,9.5261333 7.1184568,8.0210092 8.2918438,6.8164666 9.8622966,6.4963581 c 0.1703404,-0.038287 0.3405954,-0.057473 0.5109354,-0.071457 0.889262,-2.3465814 2.857203,-4.1962015 5.402341,-4.7266744 3.065443,-0.6403023 6.050611,0.8172403 7.640225,3.4218527 0.184352,-0.057388 0.368704,-0.1101705 0.56251,-0.1484574 2.715647,-0.5544341 5.284251,1.3240078 5.71947,4.1577442 0.331733,2.1458518 -0.661945,4.2101008 -2.336729,5.2852868 z"
     id="Fill-18"
     fill="#81c34a"
     style="fill-rule:evenodd;stroke:none;stroke-width:1" />
  <path
     d="M 20.603795,5 C 19.717994,5 19,5.7253178 19,6.6200698 c 0,0.8948372 0.717994,1.620155 1.603795,1.620155 0.885717,0 1.603795,-0.7253178 1.603795,-1.620155 C 22.20759,5.7253178 21.489512,5 20.603795,5"
     id="Fill-19"
     fill="#ffffff"
     style="fill-rule:evenodd;stroke:none;stroke-width:1" />
  <path
     d="M 22.844103,8 C 22.377905,8 22,8.381845 22,8.8527985 c 0,0.4708682 0.377905,0.8527131 0.844103,0.8527131 0.466113,0 0.844102,-0.3818449 0.844102,-0.8527131 C 23.688205,8.381845 23.310216,8 22.844103,8"
     id="Fill-20"
     fill="#ffffff"
     style="fill-rule:evenodd;stroke:none;stroke-width:1" />
  <metadata
     id="metadata953">
    <rdf:RDF>
      <cc:Work
         rdf:about="">
        <dc:title>Group 2</dc:title>
      </cc:Work>
    </rdf:RDF>
  </metadata>
</svg>
